<?xml version="1.0" encoding="utf-8"?>
<svg xmlns="http://www.w3.org/2000/svg">
    <symbol id="codepen" viewBox="0 0 28 28">
        <title>codepen</title>
        <path d="M3.375 18.266l9.422 6.281v-5.609l-5.219-3.484zM2.406 16.016l3.016-2.016-3.016-2.016v4.031zM15.203 24.547l9.422-6.281-4.203-2.812-5.219 3.484v5.609zM14 16.844l4.25-2.844-4.25-2.844-4.25 2.844zM7.578 12.547l5.219-3.484v-5.609l-9.422 6.281zM22.578 14l3.016 2.016v-4.031zM20.422 12.547l4.203-2.812-9.422-6.281v5.609zM28 9.734v8.531c0 0.391-0.203 0.781-0.531 1l-12.797 8.531c-0.203 0.125-0.438 0.203-0.672 0.203s-0.469-0.078-0.672-0.203l-12.797-8.531c-0.328-0.219-0.531-0.609-0.531-1v-8.531c0-0.391 0.203-0.781 0.531-1l12.797-8.531c0.203-0.125 0.438-0.203 0.672-0.203s0.469 0.078 0.672 0.203l12.797 8.531c0.328 0.219 0.531 0.609 0.531 1z"/>

    </symbol>
    <symbol id="dev-dot-to" viewBox="0 0 32 32">
        <title>dev-dot-to</title>
        <path d="M9.893 13.4c-0.24-0.213-0.613-0.307-1.12-0.307h-0.773l0.027 3.253 0.053 3.267 0.747-0.027c0.547 0 0.84-0.093 1.107-0.347 0.32-0.32 0.347-0.48 0.347-2.933 0-2.547-0.027-2.613-0.387-2.907z"/>
        <path d="M0 6.587v18.827h32v-18.827h-32zM11.413 20.4c-0.587 0.773-1.413 1.027-3.373 1.027h-1.76v-10.053h1.867c2.227 0 2.88 0.24 3.467 1.2 0.36 0.573 0.387 0.8 0.427 3.427 0.067 2.973-0.027 3.64-0.627 4.4zM18.2 13.107h-3.293v2.36h2.027v1.707l-0.96 0.053-1 0.040v2.36l1.627 0.040 1.6 0.053v1.707h-2.133c-2.040 0-2.133-0.013-2.493-0.4l-0.4-0.373v-4.213c0-4.027 0.013-4.24 0.333-4.64 0.307-0.413 0.333-0.413 2.507-0.413h2.187v1.733zM24.44 20.373c-0.227 0.573-0.853 1.053-1.333 1.053-0.24 0-0.6-0.2-0.893-0.52-0.427-0.427-0.6-0.84-1.093-2.773l-1.2-4.52-0.6-2.227h1.013c0.533 0 1 0.027 1 0.067 0 0.080 1.547 6.053 1.68 6.44 0.053 0.2 0.427-0.933 0.973-3.067l0.88-3.36 0.987-0.053c0.533-0.027 0.973 0 0.973 0.053 0 0.187-2.227 8.507-2.4 8.907z"/>

    </symbol>
    <symbol id="github" viewBox="0 0 24 28">
        <title>github</title>
        <path d="M12 2c6.625 0 12 5.375 12 12 0 5.297-3.437 9.797-8.203 11.391-0.609 0.109-0.828-0.266-0.828-0.578 0-0.391 0.016-1.687 0.016-3.297 0-1.125-0.375-1.844-0.812-2.219 2.672-0.297 5.484-1.313 5.484-5.922 0-1.313-0.469-2.375-1.234-3.219 0.125-0.313 0.531-1.531-0.125-3.187-1-0.313-3.297 1.234-3.297 1.234-0.953-0.266-1.984-0.406-3-0.406s-2.047 0.141-3 0.406c0 0-2.297-1.547-3.297-1.234-0.656 1.656-0.25 2.875-0.125 3.187-0.766 0.844-1.234 1.906-1.234 3.219 0 4.594 2.797 5.625 5.469 5.922-0.344 0.313-0.656 0.844-0.766 1.609-0.688 0.313-2.438 0.844-3.484-1-0.656-1.141-1.844-1.234-1.844-1.234-1.172-0.016-0.078 0.734-0.078 0.734 0.781 0.359 1.328 1.75 1.328 1.75 0.703 2.141 4.047 1.422 4.047 1.422 0 1 0.016 1.937 0.016 2.234 0 0.313-0.219 0.688-0.828 0.578-4.766-1.594-8.203-6.094-8.203-11.391 0-6.625 5.375-12 12-12zM4.547 19.234c0.031-0.063-0.016-0.141-0.109-0.187-0.094-0.031-0.172-0.016-0.203 0.031-0.031 0.063 0.016 0.141 0.109 0.187 0.078 0.047 0.172 0.031 0.203-0.031zM5.031 19.766c0.063-0.047 0.047-0.156-0.031-0.25-0.078-0.078-0.187-0.109-0.25-0.047-0.063 0.047-0.047 0.156 0.031 0.25 0.078 0.078 0.187 0.109 0.25 0.047zM5.5 20.469c0.078-0.063 0.078-0.187 0-0.297-0.063-0.109-0.187-0.156-0.266-0.094-0.078 0.047-0.078 0.172 0 0.281s0.203 0.156 0.266 0.109zM6.156 21.125c0.063-0.063 0.031-0.203-0.063-0.297-0.109-0.109-0.25-0.125-0.313-0.047-0.078 0.063-0.047 0.203 0.063 0.297 0.109 0.109 0.25 0.125 0.313 0.047zM7.047 21.516c0.031-0.094-0.063-0.203-0.203-0.25-0.125-0.031-0.266 0.016-0.297 0.109s0.063 0.203 0.203 0.234c0.125 0.047 0.266 0 0.297-0.094zM8.031 21.594c0-0.109-0.125-0.187-0.266-0.172-0.141 0-0.25 0.078-0.25 0.172 0 0.109 0.109 0.187 0.266 0.172 0.141 0 0.25-0.078 0.25-0.172zM8.937 21.438c-0.016-0.094-0.141-0.156-0.281-0.141-0.141 0.031-0.234 0.125-0.219 0.234 0.016 0.094 0.141 0.156 0.281 0.125s0.234-0.125 0.219-0.219z"/>

    </symbol>
    <symbol id="snowflake1" viewBox="0 0 32 32">
        <title>snowflake1</title>
        <path d="M12.973 19.32l2.32-2.32h-5.63c-0.024 0.061-0.060 0.118-0.108 0.166l-1.421 1.421c-0.198 0.198-0.509 0.192-0.704-0.003-0.19-0.19-0.197-0.51-0.003-0.704l0.88-0.88h-0.799c-0.282 0-0.508-0.224-0.508-0.5 0-0.268 0.228-0.5 0.508-0.5h0.753l-0.834-0.834c-0.193-0.193-0.186-0.514 0.003-0.704 0.195-0.195 0.506-0.201 0.704-0.003l1.421 1.421c0.036 0.036 0.065 0.077 0.088 0.12v0h5.65l-2.307-2.307c-0.054 0.021-0.112 0.032-0.174 0.032h-2.009c-0.28 0-0.495-0.224-0.495-0.5 0-0.268 0.222-0.5 0.495-0.5h1.215l-0.823-0.823c-0.195-0.195-0.189-0.517 0.001-0.706 0.195-0.195 0.512-0.195 0.706-0.001l0.819 0.819v-1.208c0-0.274 0.232-0.495 0.5-0.495 0.276 0 0.5 0.216 0.5 0.495v2.009c0 0.059-0.011 0.116-0.031 0.168l2.308 2.308v-5.637c-0.047-0.023-0.090-0.053-0.129-0.092l-1.421-1.421c-0.198-0.198-0.192-0.509 0.003-0.704 0.19-0.19 0.51-0.197 0.704-0.003l0.843 0.843v-0.77c0-0.282 0.224-0.508 0.5-0.508 0.268 0 0.5 0.228 0.5 0.508v0.799l0.871-0.871c0.193-0.193 0.514-0.186 0.704 0.003 0.195 0.195 0.201 0.506 0.003 0.704l-1.421 1.421c-0.046 0.046-0.1 0.081-0.157 0.105v5.624l2.308-2.308c-0.016-0.048-0.025-0.1-0.025-0.154v-2.009c0-0.28 0.224-0.495 0.5-0.495 0.268 0 0.5 0.222 0.5 0.495v1.188l0.814-0.814c0.195-0.195 0.511-0.195 0.706 0.001 0.19 0.19 0.196 0.512 0.001 0.706l-0.838 0.838h1.235c0.274 0 0.495 0.232 0.495 0.5 0 0.276-0.216 0.5-0.495 0.5h-2.009c-0.067 0-0.13-0.014-0.188-0.038v0l-2.298 2.298h5.679c0.022-0.043 0.051-0.084 0.087-0.12l1.421-1.421c0.198-0.198 0.509-0.192 0.704 0.003 0.19 0.19 0.197 0.51 0.003 0.704l-0.834 0.834h0.724c0.282 0 0.508 0.224 0.508 0.5 0 0.268-0.228 0.5-0.508 0.5h-0.77l0.88 0.88c0.193 0.193 0.186 0.514-0.003 0.704-0.195 0.195-0.506 0.201-0.704 0.003l-1.421-1.421c-0.049-0.049-0.085-0.106-0.108-0.166v0h-5.658l2.324 2.324c0.046-0.015 0.095-0.023 0.146-0.023h2.009c0.28 0 0.495 0.224 0.495 0.5 0 0.268-0.222 0.5-0.495 0.5h-1.178l0.795 0.795c0.195 0.195 0.189 0.517-0.001 0.706-0.195 0.195-0.512 0.195-0.706 0.001l-0.829-0.829v1.245c0 0.274-0.232 0.495-0.5 0.495-0.276 0-0.5-0.216-0.5-0.495v-2.009c0-0.069 0.015-0.135 0.041-0.195l-2.309-2.309v5.671c0.057 0.024 0.111 0.058 0.157 0.105l1.421 1.421c0.198 0.198 0.192 0.509-0.003 0.704-0.19 0.19-0.51 0.197-0.704 0.003l-0.871-0.871v0.753c0 0.282-0.224 0.508-0.5 0.508-0.268 0-0.5-0.228-0.5-0.508v-0.724l-0.843 0.843c-0.193 0.193-0.514 0.186-0.704-0.003-0.195-0.195-0.201-0.506-0.003-0.704l1.421-1.421c0.039-0.039 0.082-0.069 0.129-0.092v-5.683l-2.322 2.322c0.019 0.052 0.030 0.108 0.030 0.166v2.009c0 0.28-0.224 0.495-0.5 0.495-0.268 0-0.5-0.222-0.5-0.495v-1.206l-0.804 0.804c-0.195 0.195-0.511 0.195-0.706-0.001-0.19-0.19-0.196-0.512-0.001-0.706l0.81-0.81h-1.218c-0.274 0-0.495-0.232-0.495-0.5 0-0.276 0.216-0.5 0.495-0.5h2.009c0.062 0 0.121 0.012 0.175 0.033v0zM16.5 28c6.351 0 11.5-5.149 11.5-11.5s-5.149-11.5-11.5-11.5c-6.351 0-11.5 5.149-11.5 11.5s5.149 11.5 11.5 11.5v0z"/>

    </symbol>
</svg>